<svg xmlns="http://www.w3.org/2000/svg" width="268" height="81" viewBox="0 0 268 81">
  <g id="Group_2" data-name="Group 2" transform="translate(-358 173)">
    <text id="BrandXD" transform="translate(441 -119)" fill="#fff" font-size="50" font-family="HelveticaNeue-Thin, Helvetica Neue" font-weight="200"><tspan x="0" y="0">BrandXD</tspan></text>
    <g id="Polygon_1" data-name="Polygon 1" transform="translate(358 -173)" fill="rgba(255,255,255,0.4)">
      <path d="M 49.26255035400391 67.78498840332031 C 48.66450881958008 67.78498840332031 48.08295822143555 67.65128326416016 47.53403854370117 67.3875732421875 L 39.09825134277344 63.33480072021484 C 38.29244995117188 62.94766235351562 37.39398956298828 62.7430305480957 36.5 62.7430305480957 C 35.60602188110352 62.7430305480957 34.70755004882812 62.94766235351562 33.90172958374023 63.33480072021484 L 25.4659595489502 67.3875732421875 C 24.91703987121582 67.65128326416016 24.33548927307129 67.78498840332031 23.73744964599609 67.78498840332031 C 22.8531494140625 67.78498840332031 21.9783992767334 67.48418426513672 21.27433013916016 66.93797302246094 C 20.54109954833984 66.36913299560547 20.04322052001953 65.58633422851562 19.83452987670898 64.67417907714844 L 17.75613975524902 55.58988189697266 C 17.34638977050781 53.79892349243164 16.16159057617188 52.31543350219727 14.505539894104 51.51981353759766 L 6.096650123596191 47.47997283935547 C 4.991720199584961 46.94913101196289 4.201640129089355 45.95923233032227 3.929009914398193 44.76410293579102 C 3.656369924545288 43.5689811706543 3.938990116119385 42.33438110351562 4.704410076141357 41.37687301635742 L 10.51560974121094 34.10722351074219 C 11.66464996337891 32.66982269287109 12.08827972412109 30.81657218933105 11.67784976959229 29.02267265319824 L 9.603150367736816 19.95453262329102 C 9.330039978027344 18.76078224182129 9.611160278320312 17.52690124511719 10.37442970275879 16.56928253173828 C 11.13770961761475 15.61166191101074 12.27781009674072 15.06243228912354 13.50240039825439 15.06243228912354 L 22.85449028015137 15.06242179870605 C 24.68803977966309 15.06242179870605 26.39624977111816 14.24101161956787 27.5411205291748 12.80882167816162 L 33.37556838989258 5.510091781616211 C 34.13882064819336 4.555291652679443 35.27762985229492 4.007691860198975 36.5 4.007691860198975 C 37.72235870361328 4.007691860198975 38.86117172241211 4.555291652679443 39.62442016601562 5.510091781616211 L 45.45888137817383 12.80882167816162 C 46.6037483215332 14.24102210998535 48.31195831298828 15.06242179870605 50.14550018310547 15.06242179870605 L 59.49758911132812 15.06242179870605 C 60.72219085693359 15.06242179870605 61.86228942871094 15.61165142059326 62.62556838989258 16.56928253173828 C 63.38883972167969 17.52690124511719 63.66996002197266 18.76077270507812 63.3968391418457 19.95452117919922 L 61.32215118408203 29.02266120910645 C 60.9117317199707 30.81656265258789 61.33535003662109 32.6698112487793 62.48440170288086 34.10722351074219 L 68.29560089111328 41.37687301635742 C 69.06101226806641 42.33437347412109 69.3436279296875 43.56896209716797 69.07099914550781 44.76409149169922 C 68.79836273193359 45.95922088623047 68.00829315185547 46.94912338256836 66.90335845947266 47.47996139526367 L 58.49446868896484 51.51981353759766 C 56.83842086791992 52.31541061401367 55.65362167358398 53.79889297485352 55.24385070800781 55.58988189697266 L 53.16547012329102 64.67417144775391 C 52.95677947998047 65.58631896972656 52.45891189575195 66.36913299560547 51.72568130493164 66.93796539306641 C 51.02159881591797 67.48418426513672 50.1468505859375 67.78498840332031 49.26255035400391 67.78498840332031 Z" stroke="none"/>
      <path d="M 36.5 5.0076904296875 C 35.58322143554688 5.0076904296875 34.72911071777344 5.418388366699219 34.15667724609375 6.134490966796875 L 28.32222366333008 13.43321228027344 C 26.98655700683594 15.10411071777344 24.99364471435547 16.06242370605469 22.85448837280273 16.06242370605469 L 13.50239944458008 16.06243515014648 C 12.58395385742188 16.06243515014648 11.72887802124023 16.47435760498047 11.15642166137695 17.19256591796875 C 10.58396530151367 17.91078948974609 10.37313461303711 18.83620071411133 10.57796478271484 19.73151016235352 L 12.65265655517578 28.79964447021484 C 13.13148880004883 30.89252471923828 12.63726806640625 33.05464553833008 11.29671096801758 34.73162460327148 L 5.485496520996094 42.00127792358398 C 4.911445617675781 42.71939849853516 4.699478149414062 43.64534759521484 4.903953552246094 44.54168701171875 C 5.108436584472656 45.43804550170898 5.70098876953125 46.18045806884766 6.529685974121094 46.57859039306641 L 14.93857955932617 50.61843490600586 C 16.87064361572266 51.54665374755859 18.25291061401367 53.27738952636719 18.73095703125 55.36685562133789 L 20.80934524536133 64.45115661621094 C 21.12373352050781 65.82527923583984 22.32781219482422 66.78498840332031 23.73744583129883 66.78498840332031 C 24.18436813354492 66.78498840332031 24.62022399902344 66.68445587158203 25.03290939331055 66.48619079589844 L 33.46866607666016 62.43343353271484 C 34.40877914428711 61.98176574707031 35.45700073242188 61.74302291870117 36.5 61.74302291870117 C 37.54299926757812 61.74302291870117 38.59120941162109 61.98176574707031 39.53129959106445 62.43342208862305 L 47.96710205078125 66.48619079589844 C 48.37977600097656 66.68445587158203 48.81563568115234 66.78498840332031 49.26254272460938 66.78498840332031 C 50.67218017578125 66.78498840332031 51.87626647949219 65.82527923583984 52.19065475463867 64.45114135742188 L 54.26904296875 55.36685562133789 C 54.74708938598633 53.27737808227539 56.12936401367188 51.54664611816406 58.06142425537109 50.61843490600586 L 66.47029876708984 46.57859039306641 C 67.29901123046875 46.18045806884766 67.89156341552734 45.43803405761719 68.09604644775391 44.54167938232422 C 68.30051422119141 43.64533233642578 68.08854675292969 42.71939086914062 67.51448822021484 42.00126647949219 L 61.70327758789062 34.73162460327148 C 60.36272430419922 33.05463409423828 59.86849975585938 30.89250183105469 60.34733200073242 28.79963302612305 L 62.42201995849609 19.73150253295898 C 62.62686538696289 18.83618927001953 62.41602325439453 17.9107780456543 61.84357833862305 17.19256591796875 C 61.27112197875977 16.47434616088867 60.41604614257812 16.06242370605469 59.49758911132812 16.06242370605469 L 50.14550018310547 16.06242370605469 C 48.00635528564453 16.06242370605469 46.01344299316406 15.10411071777344 44.67776489257812 13.43321228027344 L 38.84331130981445 6.134490966796875 C 38.27087783813477 5.418388366699219 37.41677856445312 5.0076904296875 36.5 5.0076904296875 M 36.5 3.0076904296875 C 37.95235061645508 3.0076904296875 39.40470123291016 3.633689880371094 40.40552139282227 4.885688781738281 L 46.23997497558594 12.18441009521484 C 47.18880081176758 13.37136840820312 48.62592315673828 14.06242370605469 50.14550018310547 14.06242370605469 L 59.49758911132812 14.06242370605469 C 62.70915603637695 14.06242370605469 65.08792114257812 17.04687881469727 64.37164306640625 20.17755508422852 L 62.29695510864258 29.24568939208984 C 61.95693206787109 30.73186874389648 62.31354522705078 32.29196929931641 63.26548767089844 33.48282241821289 L 69.07669830322266 40.75246810913086 C 71.08403015136719 43.26356506347656 70.234130859375 46.98917770385742 67.33638763427734 48.38133239746094 L 58.92751312255859 52.42118072509766 C 57.5552978515625 53.08042144775391 56.55818939208984 54.32891082763672 56.21866607666016 55.81291198730469 L 54.14027786254883 64.89720153808594 C 53.59912490844727 67.26247406005859 51.50296020507812 68.78498840332031 49.26254653930664 68.78498840332031 C 48.54129028320312 68.78498840332031 47.80508422851562 68.627197265625 47.10099792480469 68.28893280029297 L 38.66521072387695 64.23616790771484 C 37.98091125488281 63.90740585327148 37.24045562744141 63.74302673339844 36.5 63.74302673339844 C 35.75954055786133 63.74302673339844 35.01908493041992 63.90740585327148 34.33477783203125 64.23616790771484 L 25.89899826049805 68.28893280029297 C 25.19491195678711 68.627197265625 24.45869827270508 68.78498840332031 23.73744201660156 68.78498840332031 C 21.49702835083008 68.78498840332031 19.40087509155273 67.26248931884766 18.85972213745117 64.89720916748047 L 16.78133392333984 55.81291198730469 C 16.44181060791016 54.32891082763672 15.4446907043457 53.08042144775391 14.07249069213867 52.42118072509766 L 5.663597106933594 48.38133239746094 C 2.765869140625 46.98918914794922 1.915969848632812 43.26358032226562 3.923286437988281 40.75247955322266 L 9.734500885009766 33.48282241821289 C 10.68644332885742 32.29197692871094 11.04305648803711 30.73186874389648 10.70303344726562 29.24570083618164 L 8.628341674804688 20.17756652832031 C 7.912078857421875 17.04689025878906 10.29083251953125 14.06243515014648 13.50239944458008 14.06243515014648 L 22.85448837280273 14.06242370605469 C 24.37407684326172 14.06242370605469 25.81118774414062 13.37137985229492 26.760009765625 12.18442153930664 L 32.59446716308594 4.885688781738281 C 33.59529495239258 3.633689880371094 35.04764556884766 3.0076904296875 36.5 3.0076904296875 Z" stroke="none" fill="#fff"/>
    </g>
    <text id="Serving_Wireless" data-name="Serving Wireless" transform="translate(515 -96)" fill="#fff" font-size="16" font-family="HelveticaNeue-Thin, Helvetica Neue" font-weight="200"><tspan x="0" y="0">Serving Wireless</tspan></text>
  </g>
</svg>
