<svg id="Layer_1" data-name="Layer 1" xmlns="http://www.w3.org/2000/svg" viewBox="0 0 261.61 65.23"><defs><style>.cls-1{fill:#fff;}.cls-2{fill:#fcfbfb;}</style></defs><title>BrandXD</title><path class="cls-1" d="M168.32,29.17a3.93,3.93,0,0,0-3,.16,10,10,0,0,0-5.7,7.64,15.39,15.39,0,0,0-.09,1.79q0,4.42,0,8.85a0.75,0.75,0,0,0,.07.5c1,0.11,2,0,3,0a1.29,1.29,0,0,1,0,1H153a1.46,1.46,0,0,1-.06-1c0.86,0,1.73,0,2.59,0,0.45,0,.58-0.11.57-0.57,0-2.37,0-21.1,0-28.09,0-.53-0.11-0.71-0.66-0.68l-2.46,0a0.41,0.41,0,0,1-.51-0.51c0-.37.07-0.53,0.49-0.52a30.56,30.56,0,0,0,5.58-.62,0.66,0.66,0,0,1,1,.65c0,0.15,0,.3,0,0.45,0,4.51,0,13.75,0,15.45a0.08,0.08,0,0,0,.15,0,11.7,11.7,0,0,1,4.86-5.17,8.55,8.55,0,0,1,3.08-.72,8.15,8.15,0,0,1,1.58.18,6.9,6.9,0,0,1,2.36,1.12A4.44,4.44,0,0,1,173.24,32c0,0.43,0,.9,0,1.13,0,4.36,0,13.35,0,14.79a0.2,0.2,0,0,0,.2.2h2.92a0.2,0.2,0,0,1,.2.2V49a0.2,0.2,0,0,1-.2.2H166.8a0.2,0.2,0,0,1-.2-0.19l0-.63a0.2,0.2,0,0,1,.2-0.21l2.91,0a0.2,0.2,0,0,0,.2-0.2c0-1.53-.09-11.42-0.09-16.33A2.42,2.42,0,0,0,168.32,29.17Z" transform="translate(-3.05 -2.16)"/><path class="cls-1" d="M28.23,64.6a17,17,0,0,1-4.5-1.26,0.63,0.63,0,0,1-.48-1c0.68-1.67,1.35-3.35,2-5,0.78-1.92,1.58-3.84,2.36-5.77q0.58-1.44,1.11-2.91a0.41,0.41,0,0,1,.65-0.24,13.47,13.47,0,0,0,2.39.69,19.62,19.62,0,0,0,3,.31,0.35,0.35,0,0,1,.4.41c0,5.2,0,9.58,0,14.77a0.56,0.56,0,0,1-.43.49A38.39,38.39,0,0,1,28.23,64.6Z" transform="translate(-3.05 -2.16)"/><path class="cls-1" d="M21,45.54" transform="translate(-3.05 -2.16)"/><path class="cls-1" d="M22.52,44.27a0.43,0.43,0,0,1,.62,0,14.83,14.83,0,0,0,3.4,2.8,0.51,0.51,0,0,1,.16.77c-2.59,4.3-5.09,8.52-7.66,12.83-0.16.26-.26,0.38-0.63,0.14A31.67,31.67,0,0,1,13.33,57c-0.73-.69-1.47-1.36-2.14-2.12a0.49,0.49,0,0,1,0-.84Z" transform="translate(-3.05 -2.16)"/><path class="cls-1" d="M204.23,43.62a7.63,7.63,0,0,1-2.16,4.68,6.25,6.25,0,0,1-4,1.65,6.74,6.74,0,0,1-4.7-1.32l-0.2-.16c-0.85-.72-0.85-0.73-1.66.11a1.32,1.32,0,0,1-1.14.6,0.29,0.29,0,0,1-.11-0.34q0-3.49,0-7a0.45,0.45,0,0,1,.07-0.31c0.63-.14.79,0.18,0.92,0.75a10.23,10.23,0,0,0,2.57,5.14,5.38,5.38,0,0,0,7.68-.16,4.25,4.25,0,0,0,1-2.18,4.13,4.13,0,0,0,0-1.5c-0.53-1.89-2.06-2.5-3.73-3s-3.21-.57-4.77-1.06a4.64,4.64,0,0,1-3.28-2.86,6.35,6.35,0,0,1-.3-1.26,9.21,9.21,0,0,1,.27-3.74,5.76,5.76,0,0,1,4.37-3.63,5.47,5.47,0,0,1,4.44.75c0.56,0.42.63,0.94,1.16,0.73a3.37,3.37,0,0,0,1-1.18,0.3,0.3,0,0,1,.27-0.15h0.54s0,4,0,5.48c0,0.18,0,.52-0.2.58-0.81.2-.83-0.39-1-1a6.27,6.27,0,0,0-2.46-3.63c-2.19-1.4-5.45-.8-6.48,1.71a3,3,0,0,0,.22,3.23,3.93,3.93,0,0,0,2.28,1.19c1.59,0.41,3.23.53,4.8,1a6.38,6.38,0,0,1,4,2.81,8.41,8.41,0,0,1,.66,2.13A8.57,8.57,0,0,1,204.23,43.62Z" transform="translate(-3.05 -2.16)"/><path class="cls-1" d="M182.64,28.76h5a0.14,0.14,0,0,1,.14.15l0,0.71a0.14,0.14,0,0,1-.14.14l-4.88,0a0.22,0.22,0,0,0-.22.22c0,1.56,0,11,0,15.66,0,1.44.63,2.55,1.71,2.63a3.21,3.21,0,0,0,1.11-.07,3.82,3.82,0,0,0,2.32-1.81,4.3,4.3,0,0,0,.41-0.64,0.44,0.44,0,0,1,.72-0.23c0.44,0.23.2,0.44,0.08,0.66-1,1.89-2.31,3.43-4.57,3.72a5.27,5.27,0,0,1-3.89-.54,2.84,2.84,0,0,1-1.21-1.84,12.47,12.47,0,0,1-.18-2.63c0-4.38,0-13.42,0-14.94a0.22,0.22,0,0,0-.22-0.22h-2.83a0.14,0.14,0,0,1-.14-0.14c0-.22,0-0.51,0-0.67a0.14,0.14,0,0,1,.14-0.14h2.93a0.14,0.14,0,0,0,.14-0.14c0-.74,0-4.13,0-4.84a0.36,0.36,0,0,1,.44-0.41,3.5,3.5,0,0,0,1.2,0,5.09,5.09,0,0,0,1.45-.51c0.45-.25.39,0.39,0.4,0.58,0,1.4,0,4.57,0,5.27A0.14,0.14,0,0,0,182.64,28.76Z" transform="translate(-3.05 -2.16)"/><path class="cls-1" d="M211.27,28.76h5a0.14,0.14,0,0,1,.14.15l0,0.71a0.14,0.14,0,0,1-.14.14l-4.88,0a0.22,0.22,0,0,0-.22.22c0,1.56,0,11,0,15.66,0,1.44.63,2.55,1.71,2.63a3.21,3.21,0,0,0,1.11-.07,3.82,3.82,0,0,0,2.32-1.81,4.3,4.3,0,0,0,.41-0.64,0.44,0.44,0,0,1,.72-0.23c0.44,0.23.2,0.44,0.08,0.66-1,1.89-2.31,3.43-4.57,3.72a5.27,5.27,0,0,1-3.89-.54,2.84,2.84,0,0,1-1.21-1.84,12.47,12.47,0,0,1-.18-2.63c0-4.38,0-13.42,0-14.94a0.22,0.22,0,0,0-.22-0.22h-2.83a0.14,0.14,0,0,1-.14-0.14c0-.22,0-0.51,0-0.67a0.14,0.14,0,0,1,.14-0.14h2.93a0.14,0.14,0,0,0,.14-0.14c0-.74,0-4.13,0-4.84a0.36,0.36,0,0,1,.44-0.41,3.5,3.5,0,0,0,1.2,0,5.09,5.09,0,0,0,1.45-.51c0.45-.25.39,0.39,0.4,0.58,0,1.4,0,4.57,0,5.27A0.14,0.14,0,0,0,211.27,28.76Z" transform="translate(-3.05 -2.16)"/><path class="cls-1" d="M18.92,37.36a0.5,0.5,0,0,1,.55.41,13.61,13.61,0,0,0,1.32,3.3,0.41,0.41,0,0,1-.2.69q-3.49,1.91-7,3.86c-2.11,1.18-4.09,2.31-6.19,3.5a0.5,0.5,0,0,1-.63-0.21,26.59,26.59,0,0,1-2.24-5.11C4.35,43,4.17,42.5,4,41.74a0.48,0.48,0,0,1,.37-0.68c1.86-.48,3.63-0.9,5.48-1.37l8.3-2.12C18.41,37.49,18.61,37.41,18.92,37.36Z" transform="translate(-3.05 -2.16)"/><path class="cls-1" d="M103.2,49l0-.46a0.4,0.4,0,0,1,.41-0.42H106a0.4,0.4,0,0,0,.4-0.4c0-2,0-15.72-.05-17.73a0.25,0.25,0,0,0-.26-0.25h-2.93a0.35,0.35,0,0,1-.4-0.42V29.06c0-.3.19-0.33,0.41-0.33a38.71,38.71,0,0,0,5.45-.39c0.81-.13.95,0.56,0.94,1.09q0,1.15,0,2.31a0.41,0.41,0,0,0,.76.19,11.46,11.46,0,0,1,.87-1.44A5.56,5.56,0,0,1,115.11,28a3,3,0,0,1,3.59,2.46,2.36,2.36,0,0,1-.91,2.52,2.51,2.51,0,0,1-1.79.22,1.58,1.58,0,0,1-1.26-1.49,2.67,2.67,0,0,1,0-1.14c0.27-.89-0.44-1-0.85-0.88a3.33,3.33,0,0,0-2.07,1.79,13.08,13.08,0,0,0-2.08,6.31c0-.07,0,0.27,0,0.42,0,2.74,0,8.07,0,9.58a0.4,0.4,0,0,0,.41.4h2.65a0.4,0.4,0,0,1,.41.41V49a0.2,0.2,0,0,1-.2.2H103.4A0.2,0.2,0,0,1,103.2,49Z" transform="translate(-3.05 -2.16)"/><path class="cls-1" d="M19.16,30.26A12.8,12.8,0,0,0,19,31.82c0,0.49-.42.43-0.88,0.38L3.54,30.89C3,30.87,3,30.71,3.09,30.2c0.18-1.16.32-2.32,0.6-3.46,0.22-.9.48-1.79,0.69-2.7,0.11-.48.41-0.32,0.67-0.23l7.35,2.34c2.25,0.72,4.49,1.45,6.74,2.15,0.42,0.13.48,0.26,0.35,0.67A13.33,13.33,0,0,0,19.16,30.26Z" transform="translate(-3.05 -2.16)"/><path class="cls-1" d="M126.15,27.65c0.39-.21.85,0,0.85,0.68,0,3.67-.07,17.79-0.08,19.41a0.27,0.27,0,0,0,.27.27L130,48.08a0.27,0.27,0,0,1,.27.27v0.56a0.27,0.27,0,0,1-.27.28l-8.72,0a0.27,0.27,0,0,1-.27-0.27V48.42a0.27,0.27,0,0,1,.27-0.27l2.17,0a0.27,0.27,0,0,0,.27-0.27c0-2-.1-15.19-0.09-17.45,0-.56-0.17-0.68-0.69-0.66s-1.95,0-2.54,0a0.31,0.31,0,0,1-.3-0.31V29a0.31,0.31,0,0,1,.31-0.31A13.16,13.16,0,0,0,126.15,27.65Z" transform="translate(-3.05 -2.16)"/><path class="cls-1" d="M22.35,22.69l-2.58-2.3-3.26-2.85-2.75-2.38c-0.8-.69-1.59-1.41-2.42-2.06-0.42-.33-0.45-0.57-0.1-1a38.88,38.88,0,0,1,3.67-3.41,0.54,0.54,0,0,1,.92.13c2.21,2.84,4.47,5.65,6.71,8.48,0.77,1,1.53,2,2.31,2.93,0.2,0.25.23,0.36,0,.6A13.25,13.25,0,0,0,23,22.58,0.48,0.48,0,0,1,22.35,22.69Z" transform="translate(-3.05 -2.16)"/><path class="cls-1" d="M33.94,17.42a0.34,0.34,0,0,1-.34-0.31c-0.19-2-1.22-12.93-1.3-13.81s0.23-1,.66-1.08,3.51-.07,4,0a0.61,0.61,0,0,1,.71.63L36.56,17.07a0.38,0.38,0,0,1-.38.36H33.94Z" transform="translate(-3.05 -2.16)"/><path class="cls-1" d="M57.08,11.39a0.46,0.46,0,0,1,0,.68l-10,9.88c-0.33.32-.54,0.33-0.84,0a6.89,6.89,0,0,0-1.07-1c-0.37-.27-0.15-0.57,0-0.83l3.88-5c1.27-1.64,3.72-4.72,4.61-5.85a0.53,0.53,0,0,1,.75-0.08Z" transform="translate(-3.05 -2.16)"/><path class="cls-1" d="M65.84,34.79l-14.2-.61a0.59,0.59,0,0,1-.56-0.59v-1A0.58,0.58,0,0,1,51.62,32l14.24-1a0.26,0.26,0,0,1,.28.26,8.38,8.38,0,0,1,.11,1.6,7.44,7.44,0,0,1-.11,1.68A0.29,0.29,0,0,1,65.84,34.79Z" transform="translate(-3.05 -2.16)"/><path class="cls-1" d="M58.66,54.12a6.88,6.88,0,0,1-1.85,2c-0.35.22-.49,0.34-0.78,0-1.58-1.75-3.23-3.44-4.8-5.2-0.67-.75-1.37-1.47-2.07-2.2l-3-3.13c-0.3-.31-0.33-0.43-0.13-0.68,0.05-.07.76-0.7,0.81-0.76,0.42-.43.34-0.4,1.17,0.33,2.18,1.92,4.38,3.81,6.56,5.72,1.33,1.16,2.64,2.34,4,3.5A0.32,0.32,0,0,1,58.66,54.12Z" transform="translate(-3.05 -2.16)"/><path class="cls-1" d="M132.11,43.75v1.16A1.35,1.35,0,0,1,132.11,43.75Z" transform="translate(-3.05 -2.16)"/><path class="cls-1" d="M204.53,28.73a2.14,2.14,0,0,0-.06,1A0.79,0.79,0,0,1,204.53,28.73Z" transform="translate(-3.05 -2.16)"/><path class="cls-2" d="M77.8,48.16a1.62,1.62,0,0,0,.06,1A0.88,0.88,0,0,1,77.8,48.16Z" transform="translate(-3.05 -2.16)"/><path class="cls-1" d="M18.1,32.2" transform="translate(-3.05 -2.16)"/><path class="cls-1" d="M92.41,49.05a1.16,1.16,0,0,1,.69-0.1A0.93,0.93,0,0,1,92.41,49.05Z" transform="translate(-3.05 -2.16)"/><path class="cls-1" d="M80.85,18.88a0.64,0.64,0,0,1,.65.78c0,1.68,0,3.37,0,5,0,7.62,0,15.07,0,22.69,0,0.47-.09.78-0.6,0.78H78a0.22,0.22,0,0,0-.22.22V49a0.21,0.21,0,0,0,.21.21l8.13,0,4.2,0A21.07,21.07,0,0,0,93.11,49c0.5-.1,1-0.18,1.51-0.3a8.58,8.58,0,0,0,5-2.95,7.12,7.12,0,0,0,1.43-3.32,7.85,7.85,0,0,0,.08-2.25c-0.63-4.94-4.21-6.51-8.53-7.29,3.53-1,6.47-2.47,7.37-6.33a5.11,5.11,0,0,0,0-2.07,6.78,6.78,0,0,0-4.68-5.57,13.19,13.19,0,0,0-3.86-1c-0.77-.06-0.82,0-1.51-0.06l-11.9,0a0.23,0.23,0,0,0-.23.23v0.56a0.22,0.22,0,0,0,.22.22Zm5.27,0c1.68,0.06,3.36,0,5,.15,2.58,0.27,3.84,1.38,4.3,3.94a13.18,13.18,0,0,1-.15,5.59,4.62,4.62,0,0,1-4.39,3.81c-1.66.17-3.32,0.1-5,.13-0.48,0-.45-0.27-0.44-0.58,0,0,0,0,0-.06q0-3.11,0-6.22c0-2,0-4.06,0-6.09C85.49,19,85.58,18.82,86.12,18.84ZM96.32,43.9c-0.52,2.55-2.15,3.87-4.85,4.14-1.81.18-3.63,0.08-5.44,0.14-0.46,0-.53-0.16-0.52-0.56,0-3.39,0-6.78,0-10.17,0-.91,0-2.58,0-3.49a0.48,0.48,0,0,1,.61-0.58,41.38,41.38,0,0,1,5.69.24,5.68,5.68,0,0,1,4.6,4.62A14.74,14.74,0,0,1,96.32,43.9Z" transform="translate(-3.05 -2.16)"/><path class="cls-1" d="M135.34,45.45a1.44,1.44,0,0,1-1.55-.89,2.17,2.17,0,0,1,.36-2.37,6.92,6.92,0,0,1,2.64-1.37,0.88,0.88,0,0,1,.81,0,7.12,7.12,0,0,0,2.87.61,8.93,8.93,0,0,0,1.71-.18,10.17,10.17,0,0,0,3.58-1.83,5.75,5.75,0,0,0,2.18-4.65,6.72,6.72,0,0,0-.84-3.12,0.83,0.83,0,0,1,.11-1.09c0.14-.17.28-0.32,0.43-0.48,0.48-.48.63-0.46,1,0.13a1.75,1.75,0,0,0,.65.69,1.77,1.77,0,0,0,2.41-1.14,1.1,1.1,0,0,0,0-.64,1.78,1.78,0,0,0-1.21-1.39,3,3,0,0,0-2.89.74,17.53,17.53,0,0,0-1.2,1.42c-0.13.16-.27,0.62-0.62,0.25A7.44,7.44,0,0,0,142,28a8.93,8.93,0,0,0-3.66.17,6.9,6.9,0,0,0-5.43,5.68,5.3,5.3,0,0,0,0,1.42,6,6,0,0,0,3.18,4.57,0.17,0.17,0,0,1,0,.3c-0.33.1-.65,0.19-1,0.31a4.12,4.12,0,0,0-3,3.25,3.24,3.24,0,0,0,0,1.16,4.23,4.23,0,0,0,3,3.79,0.16,0.16,0,0,1,0,.29,6.79,6.79,0,0,0-2.71,3.21,4.77,4.77,0,0,0,2,5.35,10,10,0,0,0,4.21,1.52,15.22,15.22,0,0,0,4.18-.15,10,10,0,0,0,5.33-2.69,9.07,9.07,0,0,0,2.56-5,8.7,8.7,0,0,0,0-2.33,6.21,6.21,0,0,0-.72-2,4.4,4.4,0,0,0-2.92-2h0c-0.55-.07-0.6-0.1-4.14.25A73.46,73.46,0,0,1,135.34,45.45Zm3.27,3.23c2.43-.14,4.87-0.28,7.29-0.51,3.18-.3,3.8,2.18,3.09,4.39-0.91,2.87-3.08,4.48-5.88,5.31a7.1,7.1,0,0,1-2.17.29,7,7,0,0,1-4.07-1,4.54,4.54,0,0,1-2-5.29,7.2,7.2,0,0,1,.26-0.73C136,49,136.38,48.81,138.61,48.68Zm5.69-11.45a2.9,2.9,0,0,1-2.84,3.09,6.51,6.51,0,0,1-2.57-.1,2.79,2.79,0,0,1-2.2-2.29,18.38,18.38,0,0,1-.12-5.94,3.5,3.5,0,0,1,3-3,6.88,6.88,0,0,1,2.08,0,2.94,2.94,0,0,1,2.64,3c0.07,0.86.14,1.72,0.13,2.59S144.37,36.37,144.31,37.23Z" transform="translate(-3.05 -2.16)"/><path class="cls-1" d="M237.53,47.56c-0.28-.25-0.47-0.41-0.76,0a1.28,1.28,0,0,1-.36.28,2.06,2.06,0,0,1-1.24.12,1,1,0,0,1-1-1.22,7.15,7.15,0,0,1,0-.89c-0.1-4.65,0-8.82,0-13.47a9.8,9.8,0,0,0-.09-1.31,2.89,2.89,0,0,0-2-2.35,10,10,0,0,0-5.55-.66,10.41,10.41,0,0,0-3.58,1.2,4.56,4.56,0,0,0-2.4,3.23,2.35,2.35,0,0,0-.06.83,2.1,2.1,0,0,0,1,1.6,2.45,2.45,0,0,0,2.75-.58,1.91,1.91,0,0,0-.26-2.56,1.07,1.07,0,0,1,.21-1.78,6.65,6.65,0,0,1,5.31-.72c1.18,0.54,1.18,1.7,1.23,2.79,0.07,0.91,0,1.85,0,2.77,0,0.63,0,1.74,0,2.21a0.26,0.26,0,0,1-.23.26,28.45,28.45,0,0,0-7.7,1.81c-2.06,1-3.59,2.35-3.83,4.78A5,5,0,0,0,219,45a5.14,5.14,0,0,0,2.22,4,5.71,5.71,0,0,0,5.8.35,8.44,8.44,0,0,0,3.51-3.18c0.36,0,.22.17,0.26,0.4a6.51,6.51,0,0,0,.2,1c0.7,1.93,1.8,2.72,4,2.26a4.74,4.74,0,0,0,2.45-1.64C237.59,48,237.89,47.88,237.53,47.56Zm-6.79-6.78c-0.09,3.53-1.21,5.45-2.4,6.49a3.33,3.33,0,0,1-3.6.76,3.49,3.49,0,0,1-2.11-3.1c-0.39-2.87.7-4.65,3.39-5.73a15.26,15.26,0,0,1,4.23-.87c0.35,0,.48.05,0.5,0.44C230.79,39.46,230.74,40.11,230.74,40.78Z" transform="translate(-3.05 -2.16)"/><circle class="cls-1" cx="122.13" cy="19.94" r="2.01"/><path class="cls-1" d="M239.24,49l0-.46a0.4,0.4,0,0,1,.41-0.42H242a0.4,0.4,0,0,0,.4-0.4c0-2,0-15.72-.05-17.73a0.25,0.25,0,0,0-.26-0.25h-2.93a0.35,0.35,0,0,1-.4-0.42V29.06c0-.3.19-0.33,0.41-0.33a38.71,38.71,0,0,0,5.45-.39c0.81-.13.95,0.56,0.94,1.09q0,1.15,0,2.31a0.41,0.41,0,0,0,.76.19,11.46,11.46,0,0,1,.87-1.44A5.56,5.56,0,0,1,251.15,28a3,3,0,0,1,3.59,2.46,2.36,2.36,0,0,1-.91,2.52,2.51,2.51,0,0,1-1.79.22,1.58,1.58,0,0,1-1.26-1.49,2.67,2.67,0,0,1,0-1.14c0.27-.89-0.44-1-0.85-0.88a3.33,3.33,0,0,0-2.07,1.79,13.08,13.08,0,0,0-2.08,6.31c0-.07,0,0.27,0,0.42,0,2.74,0,8.07,0,9.58a0.4,0.4,0,0,0,.41.4h2.65a0.4,0.4,0,0,1,.41.41V49a0.2,0.2,0,0,1-.2.2h-9.57A0.2,0.2,0,0,1,239.24,49Z" transform="translate(-3.05 -2.16)"/><path class="cls-1" d="M256.91,28.13V23.72h-1.65V23.13h4v0.59h-1.66v4.41h-0.66Z" transform="translate(-3.05 -2.16)"/><path class="cls-1" d="M259.89,28.13v-5h1l1.18,3.54,0.24,0.74q0.08-.27.27-0.8l1.2-3.48h0.89v5H264V23.95l-1.45,4.19H262l-1.45-4.26v4.26h-0.64Z" transform="translate(-3.05 -2.16)"/><path class="cls-1" d="M155.06,61.58l1.18-.1a2.61,2.61,0,0,0,.39,1.17,2.14,2.14,0,0,0,1,.74,3.61,3.61,0,0,0,1.45.28,3.48,3.48,0,0,0,1.27-.21,1.76,1.76,0,0,0,.82-0.58,1.35,1.35,0,0,0,.27-0.81,1.23,1.23,0,0,0-.26-0.78,1.91,1.91,0,0,0-.85-0.56,16.58,16.58,0,0,0-1.68-.46,8.62,8.62,0,0,1-1.83-.59,2.56,2.56,0,0,1-1-.88,2.16,2.16,0,0,1-.33-1.18,2.4,2.4,0,0,1,.41-1.34,2.52,2.52,0,0,1,1.19-.95,4.5,4.5,0,0,1,1.74-.32,4.74,4.74,0,0,1,1.86.34,2.67,2.67,0,0,1,1.24,1,2.87,2.87,0,0,1,.46,1.49l-1.2.09a1.94,1.94,0,0,0-.65-1.36,2.55,2.55,0,0,0-1.65-.46,2.65,2.65,0,0,0-1.66.42,1.25,1.25,0,0,0-.52,1,1.08,1.08,0,0,0,.37.84,5,5,0,0,0,1.89.67,12.51,12.51,0,0,1,2.09.6,2.87,2.87,0,0,1,1.22,1,2.35,2.35,0,0,1,.39,1.35,2.57,2.57,0,0,1-.43,1.42,2.85,2.85,0,0,1-1.24,1,4.33,4.33,0,0,1-1.82.37,5.45,5.45,0,0,1-2.15-.37,3,3,0,0,1-1.36-1.13A3.19,3.19,0,0,1,155.06,61.58Z" transform="translate(-3.05 -2.16)"/><path class="cls-1" d="M168.84,62.41l1.2,0.15A2.93,2.93,0,0,1,169,64.19a3.56,3.56,0,0,1-4.35-.35,3.62,3.62,0,0,1-.88-2.6,3.79,3.79,0,0,1,.89-2.69,3,3,0,0,1,2.31-1,2.93,2.93,0,0,1,2.25.94,3.72,3.72,0,0,1,.87,2.63q0,0.1,0,.31H165a2.63,2.63,0,0,0,.64,1.73,1.9,1.9,0,0,0,1.43.6,1.78,1.78,0,0,0,1.09-.34A2.23,2.23,0,0,0,168.84,62.41ZM165,60.53h3.83a2.32,2.32,0,0,0-.44-1.3,1.78,1.78,0,0,0-1.44-.67,1.85,1.85,0,0,0-1.35.54A2.12,2.12,0,0,0,165,60.53Z" transform="translate(-3.05 -2.16)"/><path class="cls-1" d="M171.49,64.62V57.76h1v1a2.83,2.83,0,0,1,.74-1,1.29,1.29,0,0,1,.75-0.23,2.27,2.27,0,0,1,1.19.37l-0.4,1.08a1.66,1.66,0,0,0-.85-0.25,1.11,1.11,0,0,0-.68.23,1.24,1.24,0,0,0-.43.64,4.53,4.53,0,0,0-.19,1.36v3.59h-1.16Z" transform="translate(-3.05 -2.16)"/><path class="cls-1" d="M177.81,64.62l-2.61-6.85h1.23l1.47,4.1q0.24,0.66.44,1.38,0.15-.54.43-1.3l1.52-4.18h1.19l-2.59,6.85h-1.08Z" transform="translate(-3.05 -2.16)"/><path class="cls-1" d="M182.52,56.49V55.16h1.16v1.34h-1.16Zm0,8.13V57.76h1.16v6.85h-1.16Z" transform="translate(-3.05 -2.16)"/><path class="cls-1" d="M185.45,64.62V57.76h1v1a2.46,2.46,0,0,1,2.18-1.13,2.87,2.87,0,0,1,1.14.22,1.79,1.79,0,0,1,.78.58,2.24,2.24,0,0,1,.36.86A6.67,6.67,0,0,1,191,60.4v4.21h-1.16V60.45a3.13,3.13,0,0,0-.14-1.06,1.12,1.12,0,0,0-.48-0.56,1.53,1.53,0,0,0-.81-0.21,1.88,1.88,0,0,0-1.28.47,2.32,2.32,0,0,0-.54,1.79v3.74h-1.16Z" transform="translate(-3.05 -2.16)"/><path class="cls-1" d="M192.59,65.19l1.13,0.17a1.08,1.08,0,0,0,.39.76,1.93,1.93,0,0,0,1.18.32,2.07,2.07,0,0,0,1.25-.32,1.59,1.59,0,0,0,.59-0.9,7.42,7.42,0,0,0,.08-1.49,2.39,2.39,0,0,1-1.9.9,2.59,2.59,0,0,1-2.19-1,3.93,3.93,0,0,1-.77-2.45,4.56,4.56,0,0,1,.35-1.81,2.84,2.84,0,0,1,1-1.28,2.78,2.78,0,0,1,1.58-.45,2.46,2.46,0,0,1,2,1V57.76h1.07v5.93a5.62,5.62,0,0,1-.33,2.27A2.39,2.39,0,0,1,197,67a3.58,3.58,0,0,1-1.74.39,3.28,3.28,0,0,1-2-.55A1.87,1.87,0,0,1,192.59,65.19Zm1-4.12a3,3,0,0,0,.54,2,1.77,1.77,0,0,0,2.69,0,2.88,2.88,0,0,0,.54-1.93,2.81,2.81,0,0,0-.56-1.9,1.73,1.73,0,0,0-1.35-.64,1.68,1.68,0,0,0-1.32.63A2.8,2.8,0,0,0,193.55,61.07Z" transform="translate(-3.05 -2.16)"/><path class="cls-1" d="M205.63,64.62l-2.51-9.46h1.28l1.44,6.2q0.23,1,.4,1.94,0.36-1.52.43-1.75l1.8-6.39H210l1.36,4.79a25.42,25.42,0,0,1,.74,3.35q0.18-.9.47-2.06L214,55.16h1.26l-2.59,9.46h-1.21l-2-7.21q-0.25-.9-0.3-1.11-0.15.65-.28,1.11l-2,7.21h-1.28Z" transform="translate(-3.05 -2.16)"/><path class="cls-1" d="M216.31,56.49V55.16h1.16v1.34h-1.16Zm0,8.13V57.76h1.16v6.85h-1.16Z" transform="translate(-3.05 -2.16)"/><path class="cls-1" d="M219.23,64.62V57.76h1v1a2.83,2.83,0,0,1,.74-1,1.29,1.29,0,0,1,.75-0.23A2.27,2.27,0,0,1,223,58l-0.4,1.08a1.66,1.66,0,0,0-.85-0.25A1.11,1.11,0,0,0,221,59a1.24,1.24,0,0,0-.43.64,4.53,4.53,0,0,0-.19,1.36v3.59h-1.16Z" transform="translate(-3.05 -2.16)"/><path class="cls-1" d="M228.33,62.41l1.2,0.15a2.93,2.93,0,0,1-1.05,1.63,3.56,3.56,0,0,1-4.35-.35,3.62,3.62,0,0,1-.88-2.6,3.79,3.79,0,0,1,.89-2.69,3,3,0,0,1,2.31-1,2.93,2.93,0,0,1,2.25.94,3.72,3.72,0,0,1,.87,2.63q0,0.1,0,.31h-5.11a2.63,2.63,0,0,0,.64,1.73,1.9,1.9,0,0,0,1.43.6,1.78,1.78,0,0,0,1.09-.34A2.23,2.23,0,0,0,228.33,62.41Zm-3.81-1.88h3.83a2.32,2.32,0,0,0-.44-1.3,1.78,1.78,0,0,0-1.44-.67,1.85,1.85,0,0,0-1.35.54A2.12,2.12,0,0,0,224.52,60.53Z" transform="translate(-3.05 -2.16)"/><path class="cls-1" d="M231,64.62V55.16h1.16v9.46H231Z" transform="translate(-3.05 -2.16)"/><path class="cls-1" d="M238.62,62.41l1.2,0.15a2.93,2.93,0,0,1-1.05,1.63,3.56,3.56,0,0,1-4.35-.35,3.62,3.62,0,0,1-.88-2.6,3.79,3.79,0,0,1,.89-2.69,3,3,0,0,1,2.31-1,2.93,2.93,0,0,1,2.25.94,3.72,3.72,0,0,1,.87,2.63q0,0.1,0,.31h-5.11a2.63,2.63,0,0,0,.64,1.73,1.9,1.9,0,0,0,1.43.6,1.78,1.78,0,0,0,1.09-.34A2.23,2.23,0,0,0,238.62,62.41Zm-3.81-1.88h3.83a2.32,2.32,0,0,0-.44-1.3,1.78,1.78,0,0,0-1.44-.67,1.85,1.85,0,0,0-1.35.54A2.12,2.12,0,0,0,234.81,60.53Z" transform="translate(-3.05 -2.16)"/><path class="cls-1" d="M240.82,62.57l1.15-.18a1.61,1.61,0,0,0,.54,1.06,1.88,1.88,0,0,0,1.24.37,1.82,1.82,0,0,0,1.19-.33,1,1,0,0,0,.39-0.77,0.71,0.71,0,0,0-.34-0.62,5,5,0,0,0-1.19-.39,10.9,10.9,0,0,1-1.77-.56,1.69,1.69,0,0,1-1-1.57,1.76,1.76,0,0,1,.21-0.85,1.88,1.88,0,0,1,.57-0.65,2.39,2.39,0,0,1,.74-0.34,3.51,3.51,0,0,1,1-.14,4,4,0,0,1,1.42.23,1.93,1.93,0,0,1,.9.63,2.46,2.46,0,0,1,.4,1.06l-1.14.15a1.24,1.24,0,0,0-.45-0.83,1.64,1.64,0,0,0-1-.3,1.9,1.9,0,0,0-1.14.26,0.77,0.77,0,0,0-.34.62,0.64,0.64,0,0,0,.14.41,1,1,0,0,0,.45.31l1,0.3a14.24,14.24,0,0,1,1.72.54,1.74,1.74,0,0,1,.76.61,1.7,1.7,0,0,1,.28,1,2,2,0,0,1-.34,1.09,2.19,2.19,0,0,1-1,.79,3.55,3.55,0,0,1-1.45.28,3.22,3.22,0,0,1-2-.56A2.58,2.58,0,0,1,240.82,62.57Z" transform="translate(-3.05 -2.16)"/><path class="cls-1" d="M247.42,62.57l1.15-.18a1.61,1.61,0,0,0,.54,1.06,1.88,1.88,0,0,0,1.24.37,1.82,1.82,0,0,0,1.19-.33,1,1,0,0,0,.39-0.77,0.71,0.71,0,0,0-.34-0.62,5,5,0,0,0-1.19-.39,10.9,10.9,0,0,1-1.77-.56,1.69,1.69,0,0,1-1-1.57,1.76,1.76,0,0,1,.21-0.85,1.88,1.88,0,0,1,.57-0.65,2.39,2.39,0,0,1,.74-0.34,3.51,3.51,0,0,1,1-.14,4,4,0,0,1,1.42.23,1.93,1.93,0,0,1,.9.63,2.46,2.46,0,0,1,.4,1.06l-1.14.15a1.24,1.24,0,0,0-.45-0.83,1.64,1.64,0,0,0-1-.3,1.9,1.9,0,0,0-1.14.26,0.77,0.77,0,0,0-.34.62,0.64,0.64,0,0,0,.14.41,1,1,0,0,0,.45.31l1,0.3a14.24,14.24,0,0,1,1.72.54,1.74,1.74,0,0,1,.76.61,1.7,1.7,0,0,1,.28,1,2,2,0,0,1-.34,1.09,2.19,2.19,0,0,1-1,.79,3.55,3.55,0,0,1-1.45.28,3.22,3.22,0,0,1-2-.56A2.58,2.58,0,0,1,247.42,62.57Z" transform="translate(-3.05 -2.16)"/></svg>